<svg xmlns="http://www.w3.org/2000/svg" viewBox="0 0 42.502206 18.597548" height="70.289948" width="160.63821">
  <g transform="translate(8.4581301,-271.58107)" id="layer1">
    <path d="M 23.951172 0 C 22.842051 0 22.592772 0.073524359 13.515625 3.0644531 C 8.4002052 4.7498954 4.1686948 6.2129228 4.1132812 6.3164062 C 4.0577865 6.4195873 4.0564276 6.6029586 4.109375 6.7226562 C 4.1718468 6.8640106 7.4870077 8.023374 13.541016 10.019531 C 22.495658 12.972098 22.923185 13.097656 23.958984 13.097656 C 24.987339 13.097656 25.388661 12.982542 32.328125 10.6875 C 36.336747 9.3618309 39.659948 8.3078701 39.712891 8.3457031 C 39.765876 8.3834984 39.808594 9.4232927 39.808594 10.65625 L 39.808594 12.898438 L 39.369141 13.041016 C 38.723717 13.251535 38.610578 13.760826 39.101562 14.236328 L 39.501953 14.625 L 39.113281 16.541016 C 38.899424 17.594786 38.684533 18.557571 38.634766 18.679688 C 38.552149 18.882648 38.729059 18.900391 40.681641 18.900391 C 41.857531 18.900391 42.820312 18.87077 42.820312 18.826172 C 42.820312 18.784597 42.614192 17.808779 42.363281 16.65625 L 41.908203 14.560547 L 42.275391 14.28125 C 42.778146 13.898271 42.745719 13.395658 42.199219 13.087891 L 41.757812 12.837891 L 41.757812 10.222656 L 41.757812 7.6074219 L 42.726562 7.2675781 C 43.725891 6.916838 43.960213 6.7160846 43.796875 6.3476562 C 43.736471 6.2112153 40.326215 5.0207997 34.394531 3.0664062 C 25.311321 0.073701106 25.060309 0 23.951172 0 z M 13.021484 12.173828 L 13.021484 12.177734 C 12.943611 12.177734 12.878906 13.477266 12.878906 15.066406 C 12.878906 17.403477 12.927975 18.007223 13.138672 18.222656 C 13.835702 18.935173 16.841609 19.846996 19.716797 20.21875 C 21.646394 20.467821 26.076552 20.471727 28.046875 20.222656 C 31.067127 19.845459 34.308591 18.855877 34.835938 18.150391 C 35.057195 17.854454 35.101668 12.173828 34.882812 12.173828 C 34.80494 12.173828 32.834144 12.80593 30.503906 13.578125 C 26.557467 14.885841 24.854107 15.345703 23.951172 15.345703 C 23.048249 15.345703 21.344868 14.885917 17.398438 13.578125 C 15.068191 12.80593 13.099358 12.173828 13.021484 12.173828 z M 23.957031 22.0625 C 10.739577 22.0625 0 32.873799 0 46.177734 C 0 59.481708 10.739577 70.289062 23.957031 70.289062 C 37.174485 70.289062 47.914062 59.481708 47.914062 46.177734 C 47.914062 32.873799 37.174485 22.0625 23.957031 22.0625 z M 88.855469 29.660156 C 88.076365 29.660156 87.418175 29.929474 86.880859 30.466797 C 86.370409 31.00412 86.115234 31.662295 86.115234 32.441406 L 86.115234 58.072266 C 86.115234 58.851377 86.370409 59.509603 86.880859 60.046875 C 87.418175 60.584198 88.076365 60.851562 88.855469 60.851562 C 89.634573 60.851562 90.280565 60.596375 90.791016 60.085938 C 91.301463 59.548615 91.556641 58.878212 91.556641 58.072266 L 91.556641 32.441406 C 91.556641 31.635435 91.301463 30.97726 90.791016 30.466797 C 90.280565 29.929474 89.634573 29.660156 88.855469 29.660156 z M 111.44531 29.660156 C 110.66621 29.660156 110.00802 29.929474 109.4707 30.466797 C 108.96026 31.00412 108.70508 31.662295 108.70508 32.441406 L 108.70508 58.072266 C 108.70508 58.851377 108.96026 59.509603 109.4707 60.046875 C 110.00802 60.584198 110.66621 60.851562 111.44531 60.851562 C 112.22442 60.851562 112.86846 60.596375 113.37891 60.085938 C 113.88935 59.548615 114.14453 58.878212 114.14453 58.072266 L 114.14453 32.441406 C 114.14453 31.635435 113.88935 30.97726 113.37891 30.466797 C 112.86846 29.929474 112.22442 29.660156 111.44531 29.660156 z M 77.994141 29.863281 C 77.05384 29.863281 76.247817 30.185316 75.576172 30.830078 C 74.904527 31.474865 74.568359 32.25258 74.568359 33.166016 C 74.568359 34.079477 74.904527 34.859144 75.576172 35.503906 C 76.247817 36.121809 77.05384 36.431641 77.994141 36.431641 C 78.907572 36.431641 79.701402 36.109631 80.373047 35.464844 C 81.044689 34.820082 81.378906 34.052592 81.378906 33.166016 C 81.378906 32.25258 81.044689 31.474865 80.373047 30.830078 C 79.701402 30.185316 78.907572 29.863281 77.994141 29.863281 z M 12.929688 31.501953 C 13.559046 31.501953 14.10283 31.672255 14.560547 32.015625 C 15.018262 32.330082 15.488287 32.902778 15.974609 33.732422 L 23.957031 46.390625 L 31.9375 33.732422 C 32.452429 32.902778 32.926361 32.330308 33.355469 32.015625 C 33.813184 31.672444 34.355017 31.501953 34.984375 31.501953 C 35.785379 31.501953 36.458414 31.787117 37.001953 32.359375 C 37.545487 32.931482 37.818359 33.645651 37.818359 34.503906 L 37.818359 57.890625 C 37.818359 58.720231 37.531114 59.422034 36.958984 59.994141 C 36.415446 60.566285 35.742408 60.851562 34.941406 60.851562 C 34.111796 60.851562 33.411987 60.566021 32.839844 59.994141 C 32.296306 59.422034 32.025391 58.720231 32.025391 57.890625 L 32.025391 43.902344 L 26.703125 52.269531 C 26.302623 52.927509 25.888092 53.399474 25.458984 53.685547 C 25.029878 53.971657 24.529175 54.115234 23.957031 54.115234 C 23.413494 54.115234 22.912793 53.971468 22.455078 53.685547 C 22.025972 53.399815 21.611437 52.927509 21.210938 52.269531 L 15.890625 43.816406 L 15.890625 57.890625 C 15.890625 58.720231 15.603394 59.422034 15.03125 59.994141 C 14.487713 60.566285 13.816627 60.851562 13.015625 60.851562 C 12.186017 60.851562 11.484255 60.566021 10.912109 59.994141 C 10.368572 59.422034 10.097656 58.720231 10.097656 57.890625 L 10.097656 34.503906 C 10.097656 33.645651 10.368574 32.931482 10.912109 32.359375 C 11.455647 31.78723 12.128686 31.501953 12.929688 31.501953 z M 157.13281 33.287109 C 156.13878 33.287109 155.34495 33.596941 154.75391 34.214844 C 154.18973 34.832771 153.93456 35.638797 153.98828 36.632812 L 154.43164 49.166016 C 154.45851 49.945127 154.71368 50.603302 155.19727 51.140625 C 155.70771 51.677923 156.35371 51.945312 157.13281 51.945312 C 157.88505 51.945312 158.50275 51.677923 158.98633 51.140625 C 159.46992 50.603302 159.7373 49.945127 159.79102 49.166016 L 160.23438 36.632812 C 160.2881 35.665632 160.02073 34.873736 159.42969 34.255859 C 158.86551 33.611072 158.09998 33.287109 157.13281 33.287109 z M 60.326172 39.976562 C 58.364978 39.976562 56.564592 40.434195 54.925781 41.347656 C 53.28697 42.261092 51.998893 43.522848 51.058594 45.134766 C 50.118291 46.719874 49.648438 48.467573 49.648438 50.375 C 49.648438 52.282477 50.118291 54.042354 51.058594 55.654297 C 51.998893 57.23938 53.274772 58.50111 54.886719 59.441406 C 56.525523 60.354842 58.325908 60.8125 60.287109 60.8125 C 62.248307 60.8125 64.046736 60.354842 65.685547 59.441406 C 67.351218 58.50111 68.655404 57.23938 69.595703 55.654297 C 70.562871 54.042354 71.046875 52.282477 71.046875 50.375 C 71.046875 48.467573 70.562871 46.719874 69.595703 45.134766 C 68.655404 43.549708 67.36537 42.302133 65.726562 41.388672 C 64.087752 40.448376 62.287369 39.976562 60.326172 39.976562 z M 77.994141 39.976562 C 77.215034 39.976562 76.556844 40.24588 76.019531 40.783203 C 75.509078 41.293666 75.253906 41.937685 75.253906 42.716797 L 75.253906 58.072266 C 75.253906 58.851377 75.509078 59.509603 76.019531 60.046875 C 76.556844 60.584198 77.200886 60.851562 77.953125 60.851562 C 78.732234 60.851562 79.378227 60.584198 79.888672 60.046875 C 80.425985 59.509603 80.693359 58.851377 80.693359 58.072266 L 80.693359 42.716797 C 80.693359 41.937685 80.438177 41.293666 79.927734 40.783203 C 79.417282 40.24588 78.773245 39.976562 77.994141 39.976562 z M 101.67188 39.976562 C 100.9465 39.976562 100.31466 40.260011 99.777344 40.824219 L 93.410156 47.472656 C 93.060893 47.848719 92.805715 48.19904 92.644531 48.521484 C 92.510207 48.816993 92.443359 49.139028 92.443359 49.488281 C 92.443359 50.052489 92.724885 50.710664 93.289062 51.462891 L 100.09961 59.84375 C 100.61006 60.515372 101.2824 60.851562 102.11523 60.851562 C 102.81374 60.851562 103.39094 60.610506 103.84766 60.126953 C 104.33124 59.64335 104.57227 59.051997 104.57227 58.353516 C 104.57227 57.762448 104.35758 57.197454 103.92773 56.660156 L 98.205078 49.488281 L 103.2832 44.330078 C 103.87425 43.739036 104.16992 43.093038 104.16992 42.394531 C 104.16992 41.722884 103.92694 41.159818 103.44336 40.703125 C 102.95978 40.219522 102.37038 39.976562 101.67188 39.976562 z M 124.25977 39.976562 C 123.53439 39.976562 122.9045 40.260011 122.36719 40.824219 L 116 47.472656 C 115.65074 47.848719 115.39556 48.19904 115.23438 48.521484 C 115.10003 48.816993 115.03125 49.139028 115.03125 49.488281 C 115.03125 50.052489 115.31472 50.710664 115.87891 51.462891 L 122.68945 59.84375 C 123.1999 60.515372 123.87029 60.851562 124.70312 60.851562 C 125.40163 60.851562 125.97883 60.610506 126.43555 60.126953 C 126.91913 59.64335 127.16211 59.051997 127.16211 58.353516 C 127.16211 57.762448 126.94743 57.197454 126.51758 56.660156 L 120.79492 49.488281 L 125.87305 44.330078 C 126.46409 43.739036 126.75977 43.093038 126.75977 42.394531 C 126.75977 41.722884 126.51679 41.159818 126.0332 40.703125 C 125.54962 40.219522 124.95828 39.976562 124.25977 39.976562 z M 139 39.976562 C 137.54925 39.976563 136.19433 40.193189 134.93164 40.623047 C 133.66895 41.052905 132.61995 41.656435 131.78711 42.435547 C 131.03487 43.134054 130.6582 43.859101 130.6582 44.611328 C 130.6582 45.229256 130.87484 45.753761 131.30469 46.183594 C 131.7614 46.613452 132.32445 46.828125 132.99609 46.828125 C 133.50654 46.828125 134.04324 46.613452 134.60742 46.183594 C 135.76265 45.189553 137.04049 44.691406 138.4375 44.691406 C 139.64646 44.691406 140.57202 45.001213 141.2168 45.619141 C 141.86157 46.237043 142.18359 47.097713 142.18359 48.199219 L 142.18359 49.083984 L 137.1875 49.083984 C 134.85018 49.083984 133.0093 49.608515 131.66602 50.65625 C 130.32273 51.677151 129.65234 53.088634 129.65234 54.888672 C 129.65234 56.661799 130.28224 58.097739 131.54492 59.199219 C 132.83448 60.300699 134.50117 60.851562 136.54297 60.851562 C 138.93402 60.851562 140.88224 60.140646 142.38672 58.716797 C 142.52105 59.334674 142.82892 59.845048 143.3125 60.248047 C 143.79608 60.62416 144.36108 60.8125 145.00586 60.8125 C 145.7581 60.8125 146.3758 60.557338 146.85938 60.046875 C 147.36983 59.536437 147.625 58.89044 147.625 58.111328 L 147.625 48.521484 C 147.625 45.808036 146.87167 43.711969 145.36719 42.234375 C 143.86271 40.729871 141.7403 39.976562 139 39.976562 z M 60.326172 44.933594 C 61.803788 44.933594 63.026974 45.458099 63.994141 46.505859 C 64.988171 47.553595 65.484375 48.855839 65.484375 50.414062 C 65.484375 51.972286 64.988171 53.262328 63.994141 54.283203 C 63.026974 55.304104 61.803788 55.814453 60.326172 55.814453 C 58.821695 55.814453 57.586307 55.304104 56.619141 54.283203 C 55.651974 53.262328 55.167969 51.972286 55.167969 50.414062 C 55.167969 48.829004 55.651974 47.52676 56.619141 46.505859 C 57.586307 45.458099 58.821695 44.933594 60.326172 44.933594 z M 137.91211 52.671875 L 142.18359 52.671875 L 142.18359 52.914062 C 142.18359 54.042428 141.78059 54.982148 140.97461 55.734375 C 140.16864 56.486602 139.17624 56.863281 137.99414 56.863281 C 137.10757 56.863281 136.40888 56.674941 135.89844 56.298828 C 135.38798 55.895855 135.13281 55.357194 135.13281 54.685547 C 135.13281 53.342227 136.05837 52.671875 137.91211 52.671875 z M 157.17188 53.800781 C 156.15098 53.800781 155.29226 54.149149 154.59375 54.847656 C 153.92211 55.546138 153.58594 56.378522 153.58594 57.345703 C 153.58594 58.339744 153.92211 59.172103 154.59375 59.84375 C 155.29226 60.515372 156.15098 60.851562 157.17188 60.851562 C 158.16591 60.851562 158.98608 60.515372 159.63086 59.84375 C 160.3025 59.172103 160.63867 58.339744 160.63867 57.345703 C 160.63867 56.351687 160.3025 55.519303 159.63086 54.847656 C 158.98608 54.149149 158.16591 53.800781 157.17188 53.800781 z " transform="matrix(0.26458337,0,0,0.26458337,-8.4581301,271.58107)" id="path47" />
  </g>
</svg>